<?xml version="1.0" standalone="no"?>
<!DOCTYPE svg PUBLIC "-//W3C//DTD SVG 20010904//EN"
 "http://www.w3.org/TR/2001/REC-SVG-20010904/DTD/svg10.dtd">
<svg version="1.0" xmlns="http://www.w3.org/2000/svg"
 width="2000.000000pt" height="2000.000000pt" viewBox="0 0 2000.000000 2000.000000"
 preserveAspectRatio="xMidYMid meet">

<g transform="translate(0.000000,2000.000000) scale(0.100000,-0.100000)"
fill="#000000" stroke="none">
<path d="M6310 19172 c0 -290 8 -350 65 -461 58 -115 172 -227 292 -286 102
-50 143 -58 323 -64 l165 -6 3 -916 2 -916 -62 -23 c-193 -69 -535 -218 -768
-335 -640 -321 -1220 -709 -1760 -1180 -305 -266 -776 -761 -1036 -1090 -989
-1249 -1593 -2762 -1739 -4355 -50 -556 -36 -1225 40 -1815 280 -2175 1436
-4169 3185 -5489 1733 -1309 3834 -1874 5987 -1611 923 113 1823 384 2647 796
1082 542 2007 1289 2773 2240 974 1209 1594 2725 1752 4280 36 349 44 554 38
929 -8 453 -28 731 -83 1109 -192 1343 -724 2633 -1534 3721 -775 1041 -1779
1884 -2936 2463 -232 116 -582 269 -772 337 l-62 23 2 916 3 916 160 6 c193 7
206 10 320 64 135 66 222 146 293 275 62 111 73 176 79 473 l6 267 -1017 0
-1016 0 2 -1892 3 -1893 155 -41 c820 -215 1649 -613 2340 -1122 973 -718
1746 -1665 2246 -2752 240 -523 429 -1124 530 -1690 77 -430 107 -782 108
-1285 1 -523 -32 -871 -130 -1360 -339 -1702 -1310 -3232 -2714 -4277 -946
-704 -2041 -1156 -3220 -1327 -575 -84 -1271 -90 -1870 -16 -829 102 -1681
371 -2410 760 -1029 549 -1877 1304 -2533 2257 -694 1008 -1108 2172 -1212
3411 -22 261 -30 772 -16 997 80 1272 474 2444 1172 3493 516 775 1182 1440
1972 1970 601 403 1366 751 2057 935 l185 50 6 683 c3 376 7 1227 8 1892 l1
1207 -1015 0 -1015 0 0 -268z"/>
<path d="M10303 16811 c-69 -25 -247 -148 -341 -236 -105 -98 -240 -256 -385
-450 -84 -113 -95 -129 -113 -160 -9 -16 -24 -38 -33 -48 -43 -49 -185 -332
-220 -437 -87 -266 -92 -525 -15 -764 69 -214 256 -497 441 -666 68 -63 181
-144 240 -173 23 -11 44 -26 47 -33 9 -23 -16 -849 -27 -859 -6 -7 -11 -6 -14
2 -10 27 -117 179 -201 285 l-91 114 1 75 c0 51 -10 116 -32 204 -53 219 -122
340 -271 477 -107 98 -158 138 -239 184 -307 177 -587 284 -745 284 -91 0
-128 -18 -159 -79 -27 -52 -32 -170 -12 -267 51 -252 174 -526 309 -689 143
-172 278 -261 460 -305 116 -28 359 -28 526 1 l122 20 20 -23 c65 -74 176
-232 249 -353 l83 -140 9 -130 c6 -83 5 -247 -2 -455 -21 -633 -30 -958 -30
-1180 l-1 -225 -32 36 c-17 20 -54 64 -82 98 -54 67 -188 185 -282 249 -32 22
-66 49 -76 60 -10 11 -58 101 -107 199 -48 98 -124 243 -169 322 l-81 144 -4
106 c-11 253 -104 500 -240 636 -72 71 -246 186 -389 256 l-68 34 -37 -20
c-35 -19 -37 -23 -45 -85 -12 -97 -1 -304 21 -385 30 -111 112 -264 183 -339
79 -85 131 -123 262 -190 77 -39 128 -58 180 -67 l73 -12 77 -131 c98 -169
200 -364 195 -375 -1 -5 -131 49 -287 119 -277 125 -284 129 -301 166 -35 79
-242 309 -361 400 -72 55 -198 122 -299 159 -41 15 -84 31 -95 36 -64 28 -265
71 -383 81 -371 33 -765 -84 -980 -292 -51 -48 -91 -116 -92 -152 0 -9 -6 -19
-12 -21 -9 -4 -10 -8 -3 -14 6 -4 16 -21 23 -37 22 -49 70 -103 171 -194 142
-126 326 -263 434 -321 31 -17 64 -35 74 -40 55 -31 175 -72 291 -100 218 -52
412 -41 617 34 38 14 192 88 342 165 l273 140 128 -51 c490 -198 863 -451
1029 -698 31 -47 43 -76 49 -119 8 -63 -4 -942 -15 -1062 l-6 -75 -64 85 c-36
47 -91 112 -122 145 -46 48 -63 76 -85 135 -14 41 -36 93 -47 115 -59 118
-227 325 -330 408 -80 63 -117 85 -262 151 -127 57 -272 97 -495 137 -157 27
-190 34 -265 53 -78 20 -119 20 -177 -1 -42 -15 -47 -21 -53 -52 -5 -35 6
-101 40 -231 14 -57 41 -121 103 -250 86 -177 246 -380 362 -459 85 -58 244
-130 340 -153 89 -22 249 -29 346 -16 73 10 197 45 246 69 24 12 66 33 94 47
28 14 58 23 67 19 31 -12 146 -189 253 -391 l47 -89 -11 -191 c-7 -105 -21
-249 -31 -321 -29 -193 -117 -618 -147 -710 -69 -211 -192 -374 -335 -445 -35
-18 -76 -43 -90 -56 -25 -24 -32 -25 -265 -34 -282 -11 -274 -11 -794 -61
-592 -57 -1236 -75 -1960 -55 -496 13 -708 -12 -905 -109 -154 -75 -255 -177
-334 -339 -117 -236 -153 -460 -117 -718 81 -579 451 -1156 986 -1538 238
-170 505 -314 790 -425 96 -37 249 -97 340 -133 350 -137 688 -321 880 -480
36 -30 196 -186 355 -346 160 -161 337 -330 394 -375 304 -241 601 -394 941
-486 183 -50 298 -68 440 -68 270 0 629 96 933 249 299 151 473 288 867 685
157 158 316 313 355 345 219 182 616 388 1042 543 624 225 1160 577 1465 961
192 242 318 479 416 780 61 188 76 280 76 460 1 222 -35 375 -130 560 -106
207 -271 337 -496 390 -234 55 -405 62 -913 41 -199 -8 -417 -11 -550 -7 -121
4 -365 11 -542 16 -185 6 -400 18 -505 30 -409 45 -753 72 -1069 86 -153 6
-157 7 -182 33 -14 15 -44 33 -67 41 -181 60 -357 351 -415 690 -9 47 -28 150
-45 230 -44 218 -72 453 -74 630 l-1 155 72 127 c92 161 154 257 184 285 23
21 28 22 129 12 111 -10 341 1 442 22 94 20 201 58 278 100 110 61 239 195
307 319 58 107 129 311 143 414 6 38 13 79 16 91 8 33 -12 98 -38 123 -19 17
-33 20 -83 17 -603 -36 -699 -50 -860 -125 -198 -91 -337 -246 -389 -430 -10
-36 -25 -85 -32 -109 -20 -63 -19 -249 2 -300 l16 -40 -77 -97 c-42 -53 -83
-110 -91 -125 -41 -79 -45 -20 -47 621 -2 498 -1 527 17 560 53 99 204 255
355 368 204 154 506 306 918 463 l102 38 88 -40 c92 -42 262 -121 396 -183 43
-20 83 -36 90 -36 7 0 17 -4 23 -8 33 -30 247 -96 422 -131 77 -16 274 -13
367 4 117 22 261 69 395 130 104 47 140 66 215 112 11 7 43 25 70 41 144 85
315 252 315 308 0 43 -41 100 -100 140 -19 13 -57 40 -85 59 -284 204 -598
348 -875 399 -108 20 -308 21 -423 1 -298 -53 -658 -303 -849 -591 -61 -93
-62 -94 -132 -120 -224 -85 -474 -192 -629 -270 l-68 -35 7 28 c9 36 146 295
178 335 19 25 39 35 97 50 87 22 173 60 267 120 37 24 84 52 105 62 43 22 233
183 294 249 131 142 209 322 254 591 22 128 22 298 -1 378 -15 52 -62 87 -109
81 -130 -16 -460 -152 -561 -232 -19 -15 -52 -37 -72 -49 -58 -36 -240 -232
-293 -317 -79 -128 -112 -277 -101 -465 6 -108 38 -316 55 -363 6 -16 -22 -79
-125 -281 -144 -283 -131 -266 -283 -375 -77 -55 -199 -175 -266 -260 l-50
-64 -7 109 c-4 60 -12 318 -18 574 -6 256 -15 587 -20 735 -5 149 -5 336 -1
416 l7 146 74 123 c114 191 230 346 371 498 l69 74 45 -18 c85 -32 298 -5 440
57 39 17 77 35 85 39 8 5 38 20 66 34 121 61 251 241 299 412 33 117 37 140
42 207 4 63 3 69 -16 74 -12 3 -21 10 -21 16 0 18 -139 -1 -305 -43 -131 -33
-184 -52 -294 -106 -114 -56 -143 -76 -206 -137 -39 -40 -84 -91 -98 -113 -39
-62 -77 -189 -84 -279 l-6 -80 -94 -99 c-116 -122 -240 -276 -307 -379 l-51
-79 -7 69 c-3 37 -10 237 -14 443 l-7 375 68 44 c95 62 239 202 293 286 73
113 113 213 185 455 33 112 49 199 62 355 3 28 10 106 16 175 21 232 -16 539
-110 916 -12 44 -30 172 -40 285 -28 285 -57 395 -113 429 -41 25 -68 25 -135
1z m-1006 -9428 l78 -28 615 0 c635 0 659 1 752 41 36 16 37 16 103 -21 126
-70 259 -182 475 -400 118 -119 228 -223 243 -231 28 -15 30 -14 80 29 108 91
197 141 317 178 105 32 278 32 400 0 76 -20 138 -47 128 -56 -1 -2 -34 3 -73
11 -123 24 -263 15 -358 -23 l-39 -16 71 -33 c76 -35 182 -129 193 -171 4 -16
-11 -7 -64 37 -89 75 -143 94 -247 88 -45 -3 -95 -14 -123 -26 -52 -23 -138
-97 -138 -118 0 -13 441 -314 459 -314 5 0 37 21 72 47 228 168 473 277 744
329 132 26 341 24 470 -4 111 -24 123 -21 167 38 34 46 153 137 230 176 99 50
183 67 303 61 115 -5 198 -32 249 -79 l31 -29 -40 19 c-158 76 -358 55 -518
-54 -59 -41 -197 -177 -197 -194 0 -4 24 -17 52 -31 251 -116 464 -368 527
-623 16 -63 15 -190 -1 -244 -13 -43 -13 -41 -14 65 -1 64 -9 135 -18 173 -25
97 -89 218 -157 299 -76 90 -200 194 -214 180 -11 -11 -12 -105 0 -370 9 -208
-2 -289 -55 -404 -26 -58 -64 -104 -76 -93 -3 3 8 44 24 90 60 168 63 281 17
505 -19 86 -25 146 -24 221 1 76 -2 107 -12 117 -8 7 -50 24 -94 38 -280 88
-557 69 -885 -60 -215 -84 -463 -234 -449 -271 2 -5 47 -45 99 -89 52 -44 170
-148 261 -230 178 -161 406 -353 419 -353 4 0 9 38 12 84 3 68 10 96 36 148
64 131 151 201 251 202 31 0 67 -6 81 -14 24 -14 24 -14 -35 -25 -33 -6 -69
-16 -80 -22 -85 -47 -155 -223 -141 -355 11 -110 55 -170 171 -231 76 -40 124
-54 232 -67 234 -28 380 -113 474 -275 44 -76 35 -85 -24 -24 -73 75 -151 110
-347 158 -90 22 -165 39 -166 38 -2 -2 8 -33 21 -70 25 -67 32 -151 16 -191
-5 -12 -11 4 -18 53 -24 157 -102 245 -319 360 -165 88 -255 144 -348 218 -56
46 -67 51 -61 32 45 -141 57 -295 30 -394 -17 -65 -74 -166 -110 -195 -15 -13
-14 -8 5 30 46 90 61 151 61 246 0 85 -22 208 -40 227 -4 4 -15 -20 -25 -53
-22 -80 -72 -179 -159 -314 -83 -131 -121 -211 -136 -291 -13 -68 -14 -162 -3
-169 4 -2 35 8 67 24 127 60 288 78 370 41 36 -16 112 -88 103 -96 -2 -2 -35
12 -73 32 -64 32 -75 35 -135 30 -96 -8 -176 -41 -232 -97 -61 -61 -62 -85 -5
-147 56 -63 74 -78 126 -110 36 -22 40 -28 27 -35 -37 -21 -167 47 -232 120
-101 115 -139 319 -94 496 26 102 59 168 181 365 101 164 132 231 144 313 6
39 3 49 -33 103 -22 33 -58 79 -80 103 -38 41 -40 42 -88 36 -117 -14 -187
-52 -218 -118 -34 -71 12 -144 114 -180 49 -18 51 -20 30 -28 -46 -17 -133 17
-184 71 -17 17 -37 31 -47 31 -33 0 -79 -133 -79 -226 0 -45 -17 -43 -29 4
-42 150 76 400 236 499 27 17 63 39 82 50 l34 21 -99 78 c-146 116 -230 168
-269 167 -72 -2 -187 -85 -247 -177 -50 -78 -77 -169 -85 -284 -4 -57 -10 -91
-16 -89 -19 6 -38 109 -38 205 0 50 -2 92 -5 92 -22 0 -86 -46 -108 -79 -42
-60 -66 -55 -30 7 57 99 86 133 138 162 38 22 62 46 91 91 39 60 140 149 171
149 38 0 13 27 -94 103 -65 46 -173 125 -241 176 -271 202 -458 286 -695 311
-287 31 -436 -72 -482 -333 -9 -47 -12 -101 -9 -127 7 -48 63 -292 69 -297 2
-2 18 19 36 46 42 66 127 143 193 175 84 42 154 51 261 37 89 -13 93 -12 136
11 57 29 153 31 223 5 61 -24 51 -38 -21 -31 -64 7 -133 -8 -153 -32 -11 -14
-10 -18 6 -30 45 -33 158 -152 191 -201 53 -80 90 -203 61 -203 -9 0 -18 21
-26 54 -34 155 -207 309 -377 336 -95 16 -98 8 -24 -68 37 -37 78 -92 94 -123
79 -162 14 -369 -131 -417 -47 -16 -49 1 -4 31 55 36 99 86 112 126 16 49 6
158 -19 208 -70 135 -231 197 -343 131 -79 -47 -158 -153 -159 -214 0 -52 276
-562 417 -769 65 -96 57 -94 182 -52 261 89 454 69 673 -69 21 -13 42 -24 48
-24 6 0 35 24 64 54 64 66 136 93 219 82 56 -8 122 -38 130 -60 5 -12 1 -13
-24 -4 -53 18 -141 5 -192 -28 -42 -27 -117 -112 -117 -131 0 -4 14 -26 31
-48 90 -119 97 -352 17 -555 -48 -120 -144 -243 -223 -286 -59 -31 -51 -7 19
57 77 71 136 164 165 264 25 84 40 190 30 206 -8 14 -103 6 -146 -13 -62 -27
-114 -71 -142 -120 -28 -48 -30 -49 -41 -29 -9 18 -7 31 13 75 44 96 130 164
236 187 73 15 76 25 40 99 -83 165 -281 274 -499 274 -52 0 -120 -6 -150 -13
-72 -18 -179 -66 -186 -84 -3 -8 22 -79 55 -158 105 -253 141 -410 141 -623 1
-141 10 -181 54 -245 34 -49 64 -63 108 -50 52 15 79 11 145 -21 91 -42 193
-156 193 -215 0 -24 -17 -18 -24 9 -21 85 -153 152 -260 132 -45 -9 -45 -19
-1 -110 58 -118 67 -221 29 -338 -16 -50 -54 -98 -78 -98 -12 0 -9 11 13 46
72 112 61 249 -30 380 -35 52 -158 198 -169 202 -5 2 -18 -38 -29 -88 -23 -97
-99 -262 -177 -383 l-44 -68 24 -32 c43 -56 66 -118 66 -179 0 -62 -7 -88 -22
-88 -7 0 -8 18 -4 49 5 35 2 62 -10 93 -22 55 -61 108 -80 108 -8 0 -44 -25
-81 -56 -61 -52 -168 -112 -179 -101 -3 2 19 18 48 35 108 62 218 182 282 309
29 58 29 58 -49 17 -22 -12 -86 -38 -143 -59 -56 -21 -128 -54 -160 -75 -64
-41 -163 -143 -207 -213 -60 -94 -62 -43 -4 74 34 67 60 102 132 173 l89 89
-20 41 c-31 64 -85 120 -149 153 -106 57 -187 53 -290 -13 -61 -39 -67 -31
-20 22 45 52 104 76 186 76 126 1 249 -62 335 -172 34 -44 52 -60 64 -57 61
20 187 69 219 86 112 57 153 170 153 423 0 286 -69 539 -242 881 -38 76 -78
142 -90 148 -11 6 -47 15 -80 19 -126 18 -253 -26 -352 -123 -48 -47 -116
-139 -116 -157 0 -4 42 -10 93 -13 203 -13 359 -100 420 -235 24 -54 30 -163
10 -183 -10 -10 -13 -4 -13 32 0 64 -17 115 -50 153 -34 39 -123 88 -199 110
-111 33 -291 12 -326 -37 -20 -28 -20 -141 0 -225 28 -116 100 -228 186 -288
55 -38 27 -46 -35 -10 -127 75 -246 313 -246 493 0 227 125 429 331 538 74 39
200 75 261 75 21 0 38 4 38 10 0 23 -222 460 -248 488 -24 26 -38 32 -71 32
-46 0 -99 -19 -138 -50 -26 -20 -73 -78 -73 -90 0 -3 28 -11 62 -17 37 -7 78
-24 102 -40 47 -33 116 -120 116 -145 0 -24 -17 -23 -25 1 -8 27 -80 90 -121
107 -18 8 -60 14 -92 14 -80 0 -95 -18 -133 -156 -40 -145 -37 -140 -51 -126
-9 9 -9 36 1 113 34 273 150 461 299 485 23 4 45 10 47 15 3 4 -14 54 -39 111
-73 172 -135 391 -176 623 -26 147 -33 167 -78 206 -141 124 -346 97 -424 -55
-11 -21 -26 -82 -34 -135 -29 -197 -106 -469 -180 -644 -44 -102 -44 -113 3
-122 54 -10 109 -40 151 -84 77 -80 144 -261 158 -432 8 -97 -8 -114 -31 -32
-42 152 -60 197 -86 216 -67 49 -211 2 -269 -87 -22 -34 -25 -36 -28 -17 -2
12 8 42 23 66 32 55 105 100 188 116 31 6 57 15 57 19 0 4 -13 25 -29 47 -36
50 -118 93 -177 93 -61 0 -86 -34 -219 -301 l-115 -229 64 0 c84 0 158 -16
221 -47 156 -77 295 -252 340 -428 60 -236 -71 -562 -259 -640 -37 -16 -36
-14 30 52 110 108 165 235 168 384 1 69 -2 80 -23 103 -50 53 -251 62 -361 16
-141 -60 -201 -124 -206 -224 -1 -28 -3 -55 -3 -60 -1 -6 -6 -5 -12 1 -17 17
-14 113 5 170 46 138 213 237 424 250 61 4 92 10 92 18 0 22 -77 131 -116 164
-125 103 -330 147 -434 91 -22 -12 -167 -305 -215 -433 -79 -216 -118 -414
-117 -597 1 -206 37 -343 105 -394 20 -15 93 -48 162 -72 l127 -46 16 24 c64
93 165 168 263 199 74 23 109 24 179 3 53 -16 153 -95 138 -109 -4 -4 -35 10
-69 31 -57 36 -68 39 -133 39 -86 -1 -154 -32 -221 -100 -45 -47 -87 -120 -79
-139 3 -6 21 -22 40 -36 85 -61 214 -256 214 -325 0 -24 -9 -16 -65 63 -100
140 -184 200 -363 264 -48 16 -109 41 -135 55 -27 13 -51 23 -53 20 -2 -2 9
-31 26 -63 39 -80 118 -165 225 -244 48 -35 82 -66 77 -68 -20 -6 -108 46
-170 102 -34 31 -67 56 -72 56 -13 0 -57 -60 -75 -103 -8 -20 -15 -64 -15 -97
0 -60 -12 -80 -24 -37 -19 71 5 178 55 239 l31 40 -32 45 c-57 78 -168 315
-186 394 -9 41 -20 80 -23 87 -5 9 -31 -14 -82 -73 -131 -153 -169 -231 -169
-351 0 -65 8 -93 47 -156 27 -43 10 -53 -24 -15 -91 98 -90 282 1 453 24 45
25 50 9 62 -37 27 -161 6 -221 -38 -21 -15 -48 -47 -60 -71 l-21 -44 -1 34
c-1 69 109 179 217 217 44 16 59 17 105 7 67 -15 91 0 133 82 29 56 30 65 36
229 10 241 44 385 149 623 28 61 50 118 50 126 0 45 -146 103 -285 113 -220
16 -450 -94 -546 -260 -45 -79 -41 -90 39 -115 37 -11 88 -33 113 -50 76 -48
152 -164 135 -206 -9 -24 -20 -18 -41 21 -41 76 -157 144 -246 144 -54 0 -61
-22 -38 -125 38 -171 88 -266 192 -359 54 -49 67 -66 52 -66 -11 0 -32 7 -45
16 -110 74 -219 243 -255 397 -32 137 -10 345 45 425 35 50 37 73 9 118 -50
81 -135 120 -237 110 -65 -7 -66 -7 -48 13 22 25 98 51 146 51 66 0 131 -30
188 -87 29 -29 58 -53 64 -53 5 0 23 9 39 21 16 11 66 38 111 59 199 93 399
92 612 -4 32 -14 64 -26 70 -26 12 0 167 242 266 415 83 143 208 397 215 436
8 45 -9 87 -64 156 -70 89 -155 118 -257 88 -48 -13 -70 -27 -115 -74 -81 -82
-106 -173 -78 -274 10 -38 77 -116 129 -149 l25 -17 -27 0 c-64 -2 -170 124
-184 218 -19 122 70 304 180 372 26 16 27 19 12 25 -36 14 -126 -5 -203 -42
-128 -61 -219 -168 -259 -306 -20 -65 -39 -64 -31 2 11 88 67 178 179 285 l99
96 -47 21 c-41 18 -59 20 -127 14 -91 -8 -94 2 -11 33 75 29 146 27 214 -5 50
-23 58 -24 103 -13 68 16 199 6 268 -21 78 -30 161 -100 211 -176 50 -78 45
-84 89 106 33 142 36 206 13 294 -38 146 -107 237 -210 275 -74 28 -204 37
-304 22 -190 -30 -452 -150 -625 -287 -60 -47 -144 -109 -185 -137 -41 -27
-106 -73 -144 -100 l-68 -51 47 -24 c58 -29 136 -105 164 -159 14 -29 36 -50
76 -72 57 -32 99 -81 141 -163 31 -61 16 -61 -32 -2 -37 45 -90 81 -102 69 -4
-3 -7 -48 -8 -98 -2 -98 -21 -188 -41 -195 -10 -3 -13 15 -13 66 0 76 -29 202
-61 270 -31 63 -122 157 -181 186 -55 28 -115 33 -150 15 -25 -14 -158 -112
-246 -182 l-63 -50 52 -28 c102 -56 171 -122 232 -222 66 -108 96 -256 67
-331 -16 -44 -27 -29 -33 48 -5 71 -36 164 -61 186 -9 7 -24 0 -52 -26 -65
-59 -145 -91 -188 -75 -14 6 -5 14 47 39 36 18 71 42 79 55 69 105 -24 208
-209 233 l-49 6 -58 -74 c-75 -93 -100 -147 -91 -198 9 -56 51 -139 155 -306
111 -178 143 -243 170 -348 23 -93 26 -226 6 -301 -31 -116 -133 -253 -219
-294 -81 -38 -154 -27 -85 13 47 27 82 58 128 111 54 62 53 86 -6 143 -115
110 -296 133 -403 50 -32 -24 -43 -23 -30 5 23 51 156 107 255 107 68 0 170
-32 222 -70 23 -16 47 -30 53 -30 19 0 5 185 -20 255 -12 32 -64 127 -115 210
-110 176 -138 231 -161 308 -9 32 -21 55 -26 52 -5 -3 -16 -32 -25 -63 -30
-103 -7 -266 61 -424 10 -25 -8 -22 -33 5 -32 35 -70 117 -88 193 -22 93 -14
223 20 329 14 43 24 80 23 82 -1 1 -32 -23 -67 -53 -87 -74 -143 -110 -301
-195 -74 -40 -160 -90 -191 -111 -106 -71 -165 -168 -177 -292 l-8 -71 -17 38
c-20 44 -12 105 24 196 11 29 19 55 17 58 -10 9 -337 -79 -392 -106 -61 -30
-133 -89 -153 -126 -6 -11 -14 -16 -19 -12 -11 12 42 109 88 161 89 100 210
156 407 186 157 24 200 39 287 98 88 61 114 105 122 205 6 83 -11 167 -53 249
-45 91 -76 114 -172 126 l-57 8 32 17 c69 37 154 14 239 -65 78 -72 124 -181
124 -295 0 -35 4 -63 8 -63 11 0 189 148 341 283 63 56 176 155 250 221 209
183 203 176 190 192 -22 27 -225 148 -336 201 -205 98 -403 150 -608 160 -138
7 -253 -9 -400 -55 l-90 -28 -6 -139 c-4 -79 -15 -182 -27 -235 -42 -197 -36
-324 24 -490 14 -39 24 -74 21 -76 -22 -23 -95 111 -122 226 -18 79 -20 257
-3 430 6 69 8 146 4 173 l-7 47 -31 -17 c-61 -35 -187 -164 -235 -241 -54 -84
-97 -181 -113 -252 -5 -25 -10 -94 -11 -155 -1 -102 -2 -108 -14 -80 -22 47
-19 206 5 293 64 232 247 450 485 577 41 22 75 44 76 49 1 4 -26 39 -60 76
-67 75 -167 147 -250 180 -114 44 -256 43 -372 -4 -72 -29 -74 -12 -3 26 71
39 157 59 249 60 186 0 354 -80 505 -243 l55 -59 100 22 c79 17 132 21 255 21
244 0 429 -47 678 -169 133 -66 290 -163 326 -203 11 -12 25 -21 32 -21 22 0
464 299 464 314 0 7 -20 32 -44 54 -145 133 -341 128 -481 -12 -30 -30 -55
-53 -55 -50 0 3 6 19 14 37 21 49 93 112 179 157 78 40 78 40 50 51 -85 32
-149 41 -263 36 -63 -3 -128 -9 -144 -13 -21 -5 -27 -4 -22 5 21 33 195 71
325 71 181 -1 346 -67 500 -202 26 -23 54 -38 70 -38 20 0 72 47 246 223 121
123 253 250 294 282 75 59 237 165 252 165 5 0 44 -12 86 -27z m2443 -197 c0
-16 -148 -98 -162 -90 -24 15 21 73 72 93 39 15 90 13 90 -3z m-3280 -56 c0
-25 -25 -36 -45 -20 -20 16 -7 40 21 40 17 0 24 -6 24 -20z m3675 0 c115 -16
165 -30 165 -47 0 -10 -5 -13 -17 -8 -10 4 -69 10 -130 12 -168 8 -344 -26
-427 -82 -65 -44 -88 -30 -33 21 99 93 255 130 442 104z m-3940 -20 c0 -8 -10
-16 -22 -18 -22 -3 -32 16 -16 32 12 11 38 2 38 -14z m5164 2 c12 -23 -1 -45
-25 -40 -23 4 -31 37 -12 49 19 13 26 11 37 -9z m-431 -54 c2 -19 -2 -28 -17
-33 -28 -8 -41 1 -41 30 0 42 53 46 58 3z m256 -14 c31 -30 10 -94 -30 -94
-34 0 -54 20 -54 55 0 50 50 73 84 39z m-4796 -36 c30 -30 0 -75 -43 -64 -19
5 -25 13 -25 35 0 15 3 31 7 34 11 11 48 8 61 -5z m-1074 -43 c9 -25 -5 -45
-30 -45 -26 0 -40 20 -30 45 3 8 16 15 30 15 13 0 26 -7 30 -15z m-596 -38 c3
-16 -3 -18 -45 -15 -37 2 -49 7 -51 21 -3 16 3 18 45 15 37 -2 49 -7 51 -21z
m-225 -31 c108 -43 142 -48 217 -37 88 14 184 13 234 -2 73 -22 50 -32 -82
-35 -324 -9 -299 -11 -381 33 -115 61 -107 88 12 41z m842 -61 c0 -23 -34 -33
-46 -14 -10 17 9 41 30 37 9 -2 16 -12 16 -23z m1810 -230 c0 -25 -4 -30 -24
-30 -28 0 -47 25 -38 49 5 12 16 16 34 14 24 -3 28 -8 28 -33z m215 -10 c0 -9
-7 -18 -16 -22 -18 -7 -39 11 -30 26 11 17 46 13 46 -4z m5392 -60 c14 -32 -5
-57 -41 -53 -27 3 -39 33 -27 64 9 24 55 17 68 -11z m-9438 -21 c9 -8 16 -22
16 -29 0 -20 -28 -45 -50 -45 -22 0 -50 25 -50 45 0 20 28 45 50 45 10 0 26
-7 34 -16z m154 -37 c4 -21 -25 -34 -40 -19 -8 8 -8 16 2 27 16 19 34 15 38
-8z m9036 14 c10 -16 -5 -41 -24 -41 -23 0 -34 16 -26 35 6 16 42 20 50 6z
m-1154 -41 c24 -24 25 -43 4 -64 -18 -19 -55 -21 -72 -4 -19 19 -14 55 10 72
29 20 34 20 58 -4z m-429 -45 c-2 -5 -86 -41 -185 -79 -100 -38 -193 -77 -208
-88 -23 -16 -28 -17 -28 -5 0 21 52 63 124 99 116 60 311 107 297 73z m1717
-102 c3 -28 0 -33 -24 -39 -31 -8 -57 5 -62 30 -6 27 18 47 52 44 27 -3 31 -7
34 -35z m-4714 4 c29 -21 16 -51 -22 -55 -28 -3 -32 0 -32 20 0 22 16 48 30
48 3 0 14 -6 24 -13z m3200 -13 c22 -21 4 -54 -29 -54 -14 0 -25 2 -25 4 0 2
-3 11 -6 19 -5 14 20 47 36 47 5 0 16 -7 24 -16z m-7741 -28 c7 -17 -18 -40
-33 -31 -5 3 -10 15 -10 26 0 23 35 27 43 5z m8084 -12 c8 -21 -19 -46 -40
-38 -17 6 -23 35 -10 47 12 13 44 7 50 -9z m1378 -3 c0 -8 -8 -19 -17 -25 -22
-13 -44 5 -34 29 7 20 51 16 51 -4z m-7909 -16 c7 -18 -13 -45 -33 -45 -17 0
-27 24 -19 45 7 20 45 19 52 0z m5848 4 c-9 -15 -94 -50 -105 -43 -14 8 0 24
35 40 38 16 80 18 70 3z m-5678 -10 c9 -16 -20 -41 -39 -33 -17 6 -22 25 -10
37 10 11 41 8 49 -4z m3098 -91 c8 -22 6 -32 -9 -48 -22 -24 -42 -25 -67 -3
-22 20 -23 46 -2 68 25 24 67 15 78 -17z m-230 -64 c27 -10 20 -44 -9 -44 -18
0 -25 5 -25 18 0 29 9 36 34 26z m5006 -146 c-1 -192 -177 -532 -383 -741 -57
-57 -82 -76 -90 -68 -7 7 13 34 72 96 136 142 208 271 305 552 74 212 74 213
86 213 5 0 10 -23 10 -52z m-9530 -43 c20 -24 3 -55 -31 -55 -16 0 -29 2 -29
4 0 2 -3 11 -6 19 -6 16 20 47 40 47 8 0 19 -7 26 -15z m9277 -30 c7 -22 -23
-48 -45 -41 -21 7 -30 35 -15 50 10 10 56 3 60 -9z m-6012 -160 c0 -22 -31
-33 -47 -17 -17 17 -1 44 24 40 15 -2 23 -10 23 -23z m-3472 -78 c8 -21 -8
-39 -29 -35 -11 2 -20 13 -22 26 -3 18 1 22 21 22 14 0 27 -6 30 -13z m3265
-89 c34 -34 -6 -90 -48 -68 -20 10 -28 58 -13 73 11 11 48 8 61 -5z m277 -78
c0 -18 -6 -26 -23 -28 -24 -4 -38 18 -28 44 3 9 15 14 28 12 17 -2 23 -10 23
-28z m5548 -12 c8 -12 7 -21 -2 -32 -30 -36 -72 -6 -50 35 12 23 37 22 52 -3z
m-8235 -37 c8 -4 12 -19 10 -32 -2 -18 -9 -24 -28 -24 -19 0 -26 6 -28 24 -3
20 11 41 28 41 3 0 11 -4 18 -9z m8442 -115 c0 -19 -45 -84 -93 -134 -53 -55
-161 -142 -177 -142 -27 0 2 42 115 161 111 117 155 150 155 115z m-8976 -82
c19 -19 20 -25 3 -48 -19 -26 -61 -18 -65 12 -7 44 32 67 62 36z m8844 -221
c-4 -20 -83 -83 -104 -83 -29 0 -13 31 34 65 52 38 75 44 70 18z m-4388 -103
c0 -24 -26 -38 -42 -22 -16 16 -2 42 22 42 13 0 20 -7 20 -20z m-1343 -26 c8
-20 -21 -49 -41 -41 -9 4 -16 18 -16 32 0 20 5 25 25 25 14 0 28 -7 32 -16z
m-221 -75 c3 -6 -1 -18 -10 -27 -15 -15 -17 -15 -32 0 -19 19 -11 38 16 38 10
0 22 -5 26 -11z m4829 -24 c0 -13 -8 -21 -22 -23 -17 -3 -23 2 -23 16 0 10 3
22 7 26 13 13 38 1 38 -19z m461 -30 c8 -33 -12 -57 -45 -53 -18 2 -27 10 -29
26 -6 37 5 52 37 52 24 0 32 -5 37 -25z m-3655 -16 c18 -34 -3 -69 -40 -69
-45 0 -66 44 -35 74 22 23 61 20 75 -5z m-3411 -29 c13 -23 -2 -60 -25 -60
-30 0 -45 13 -45 40 0 42 51 56 70 20z m1876 -38 c17 -11 22 -35 13 -59 -9
-26 -56 -32 -77 -11 -37 37 21 100 64 70z m4916 -25 c27 -42 -5 -107 -52 -107
-50 0 -70 85 -27 115 23 17 66 12 79 -8z m311 -59 c8 -12 7 -21 -2 -32 -30
-36 -72 -6 -50 35 12 23 37 22 52 -3z m-7255 -27 c21 -13 10 -46 -16 -49 -27
-4 -40 22 -22 43 14 17 20 18 38 6z m1092 -119 c0 -20 -21 -54 -59 -95 -30
-33 -117 -81 -131 -72 -19 11 -10 25 28 44 22 11 63 47 93 80 58 64 69 71 69
43z m10 -126 c0 -18 -53 -66 -73 -66 -28 0 -19 27 20 59 36 30 53 32 53 7z
m4595 -56 c0 -20 -6 -26 -26 -28 -30 -4 -46 22 -28 45 20 23 54 12 54 -17z
m-1345 -35 c15 -18 5 -64 -16 -72 -21 -8 -64 13 -64 32 0 48 52 74 80 40z
m-1040 -70 c19 -23 8 -50 -20 -50 -16 0 -26 6 -28 18 -4 18 14 47 28 47 4 0
13 -7 20 -15z m2634 0 c20 -21 10 -45 -20 -45 -18 0 -24 5 -24 23 0 39 18 48
44 22z m-3440 -80 c9 -25 -5 -45 -30 -45 -14 0 -27 7 -30 15 -10 25 4 45 30
45 13 0 26 -7 30 -15z m3182 -19 c9 -39 1 -60 -28 -70 -34 -12 -58 6 -58 43 0
35 17 51 52 51 21 0 29 -6 34 -24z m-3058 -28 c-3 -25 -34 -36 -50 -20 -17 17
-1 42 27 42 22 0 26 -4 23 -22z m826 -7 c9 -15 -23 -36 -36 -23 -5 5 -7 15 -4
21 9 13 33 14 40 2z m280 -7 c36 -35 12 -94 -38 -94 -38 0 -58 19 -58 55 0 14
5 32 12 40 16 20 64 19 84 -1z m313 -20 c3 -8 1 -20 -6 -27 -14 -14 -47 15
-37 32 10 16 36 13 43 -5z m-1549 -61 c13 -25 -3 -63 -26 -63 -28 0 -45 25
-38 55 8 30 50 35 64 8z m907 -639 c37 -15 38 -82 1 -106 -40 -27 -102 15 -91
60 10 44 47 62 90 46z m235 -139 c17 -21 5 -45 -24 -45 -27 0 -42 26 -25 46
15 18 33 18 49 -1z m-451 -144 c13 -24 -8 -55 -35 -49 -23 4 -30 33 -14 53 17
20 37 19 49 -4z m1620 -47 c-18 -20 -68 -59 -109 -87 -41 -27 -121 -83 -176
-124 -98 -71 -159 -104 -216 -117 -46 -11 -33 16 20 41 26 12 81 48 122 80
150 114 375 262 384 252 6 -5 -3 -22 -25 -45z m-219 -43 c0 -13 -71 -71 -87
-71 -28 0 -20 21 19 49 44 31 68 38 68 22z m-1452 -53 c7 -7 12 -22 12 -34 0
-51 -72 -61 -78 -11 -6 47 36 75 66 45z m750 -70 c25 -54 -25 -106 -77 -79
-29 16 -37 56 -16 87 23 35 74 31 93 -8z m-210 -225 c6 -11 6 -28 1 -41 -7
-18 -15 -23 -36 -20 -29 3 -41 32 -29 64 8 20 53 18 64 -3z"/>
<path d="M10758 15340 c-3 -8 -11 -105 -17 -215 -13 -225 -41 -441 -76 -578
-13 -50 -22 -93 -20 -95 6 -6 44 104 65 190 48 187 82 551 62 663 -5 28 -11
43 -14 35z"/>
<path d="M10810 15136 c0 -45 14 -66 31 -49 12 12 -3 85 -19 91 -8 2 -12 -10
-12 -42z"/>
<path d="M10806 14948 c-3 -24 -17 -123 -31 -222 -25 -170 -26 -201 -6 -180
23 24 76 379 63 426 -8 31 -21 19 -26 -24z"/>
<path d="M8635 14670 c70 -33 96 -39 102 -24 5 16 -88 54 -129 53 -32 -1 -30
-2 27 -29z"/>
<path d="M8435 14671 c-7 -12 -2 -15 65 -31 63 -16 206 -68 262 -96 55 -28 68
-30 68 -10 0 18 -167 99 -245 119 -93 24 -142 30 -150 18z"/>
<path d="M11189 13003 c-99 -67 -176 -132 -255 -216 -91 -97 -136 -167 -169
-264 -33 -99 -38 -123 -23 -123 8 0 26 33 41 73 36 92 107 210 176 287 29 34
111 108 182 166 71 58 129 107 129 110 0 13 -34 -1 -81 -33z"/>
<path d="M10721 12544 c-59 -75 -85 -307 -43 -379 9 -16 11 -1 12 83 0 103 20
228 45 290 17 39 13 40 -14 6z"/>
<path d="M12751 12476 c2 -2 57 -12 122 -20 64 -9 125 -20 133 -23 12 -4 15
-2 12 8 -7 22 -76 37 -177 38 -52 1 -92 -1 -90 -3z"/>
<path d="M12590 12425 c-47 -7 -86 -14 -87 -14 -2 -1 -3 -8 -3 -16 0 -11 7
-13 33 -7 17 4 111 7 207 7 183 -1 286 -17 414 -66 28 -10 62 -19 76 -19 64 0
-49 50 -215 96 -112 31 -298 40 -425 19z"/>
<path d="M10716 12303 c-9 -10 -7 -75 3 -69 11 7 20 65 11 71 -4 3 -10 2 -14
-2z"/>
<path d="M6910 11279 c58 -52 195 -138 293 -184 122 -58 230 -85 331 -84 89 0
82 9 -22 28 -169 32 -392 119 -551 218 -64 39 -77 45 -51 22z"/>
<path d="M7930 11045 c-36 -7 -105 -18 -153 -25 -72 -10 -87 -15 -85 -29 3
-13 13 -15 53 -13 76 5 170 29 223 56 53 28 52 29 -38 11z"/>
<path d="M7504 10924 c55 -40 218 -43 296 -5 25 12 36 18 25 15 -37 -12 -230
-16 -285 -6 -47 9 -52 8 -36 -4z"/>
<path d="M9730 10692 c0 -12 7 -39 16 -60 11 -26 19 -92 25 -216 9 -172 19
-223 40 -211 12 8 11 140 -1 283 -10 110 -24 155 -64 207 -15 20 -15 20 -16
-3z"/>
<path d="M8865 10570 c157 -53 285 -116 363 -179 67 -55 74 -57 40 -11 -65 88
-318 211 -464 225 -57 6 -54 4 61 -35z"/>
<path d="M9094 10555 c37 -20 70 -34 73 -31 9 9 -71 54 -107 60 -29 5 -23 0
34 -29z"/>
<path d="M9673 10538 c-15 -25 11 -118 33 -118 20 0 19 93 -2 114 -19 19 -21
19 -31 4z"/>
<path d="M9255 10460 c10 -11 22 -20 27 -20 5 0 4 9 -2 20 -6 11 -18 20 -27
20 -14 0 -14 -2 2 -20z"/>
<path d="M10390 7993 c0 -53 7 -68 97 -211 78 -124 148 -204 158 -181 4 10 -7
43 -25 80 -47 93 -210 359 -221 359 -5 0 -9 -21 -9 -47z"/>
<path d="M10724 7576 c-13 -33 0 -51 39 -54 31 -3 37 0 37 17 0 40 -63 71 -76
37z"/>
<path d="M7526 7540 c-57 -10 -73 -22 -52 -39 11 -9 28 -10 72 -2 32 6 97 11
145 11 84 0 114 9 87 27 -19 11 -194 13 -252 3z"/>
<path d="M12882 7539 c-23 -7 -32 -15 -30 -27 2 -13 15 -18 53 -20 61 -3 85 9
69 35 -13 21 -46 25 -92 12z"/>
<path d="M13178 7541 c-107 -16 -65 -44 57 -37 94 5 147 17 127 30 -17 11
-132 15 -184 7z"/>
<path d="M5690 7498 c-63 -17 -53 -26 37 -32 116 -7 355 6 360 20 8 23 -324
33 -397 12z"/>
<path d="M13810 7459 c-52 -5 -309 -12 -570 -17 -261 -5 -483 -12 -492 -17
-10 -4 -18 -13 -18 -20 0 -9 48 -14 198 -19 108 -3 278 -9 377 -12 138 -5 213
-2 320 11 190 22 490 31 584 16 40 -6 76 -10 78 -7 11 11 -48 36 -117 50 -99
20 -242 26 -360 15z"/>
<path d="M7565 7450 c-110 -4 -240 -13 -290 -19 -49 -6 -207 -18 -350 -26
-245 -15 -504 -41 -515 -52 -3 -3 245 -2 550 2 443 5 589 11 725 26 204 22
230 29 230 55 0 17 -8 19 -75 20 -41 1 -165 -2 -275 -6z"/>
<path d="M5755 7410 c-228 -8 -303 -18 -404 -56 -261 -98 -436 -280 -498 -516
-14 -52 -15 -70 -6 -79 10 -10 13 -9 16 2 29 100 43 134 77 189 47 76 144 177
215 224 172 114 422 187 700 206 216 14 276 21 269 31 -6 10 -42 9 -369 -1z"/>
<path d="M13225 4005 c-93 -46 -186 -117 -172 -131 23 -24 282 114 282 151 0
10 -5 20 -10 22 -6 2 -51 -17 -100 -42z"/>
<path d="M13098 3814 c-122 -66 -378 -269 -378 -301 0 -24 28 -13 81 32 29 24
106 72 172 107 156 81 239 141 235 171 -5 33 -35 31 -110 -9z"/>
<path d="M12715 3776 c-219 -105 -444 -264 -597 -422 -72 -75 -168 -195 -168
-211 0 -29 34 -9 112 65 175 164 348 292 528 393 119 66 281 170 299 192 18
22 7 47 -21 47 -13 -1 -82 -29 -153 -64z"/>
<path d="M7500 3650 c0 -16 40 -53 165 -150 63 -49 247 -220 430 -400 449
-442 569 -538 830 -665 144 -70 168 -78 173 -54 2 11 -39 40 -135 98 -278 164
-438 295 -707 575 -229 238 -326 321 -556 475 -210 141 -200 135 -200 121z"/>
<path d="M9253 2294 c-16 -43 51 -81 172 -99 100 -14 145 -10 145 15 0 18 -89
51 -230 84 -81 19 -79 19 -87 0z"/>
<path d="M9714 2185 c-4 -9 -2 -21 3 -26 17 -17 82 -23 98 -9 23 19 18 27 -24
34 -22 3 -46 9 -55 12 -10 4 -18 0 -22 -11z"/>
</g>
</svg>
