<?xml version="1.0" standalone="no"?>
<!DOCTYPE svg PUBLIC "-//W3C//DTD SVG 20010904//EN"
 "http://www.w3.org/TR/2001/REC-SVG-20010904/DTD/svg10.dtd">
<svg version="1.0" xmlns="http://www.w3.org/2000/svg"
 width="2000.000000pt" height="2000.000000pt" viewBox="0 0 2000.000000 2000.000000"
 preserveAspectRatio="xMidYMid meet">

<g transform="translate(0.000000,2000.000000) scale(0.100000,-0.100000)"
fill="#000000" stroke="none">
<path d="M7500 19323 c0 -255 30 -352 139 -457 97 -92 194 -126 357 -126 l84
0 -2 -621 -3 -620 -135 -54 c-985 -390 -1830 -1051 -2477 -1940 -294 -404
-573 -950 -742 -1450 -203 -603 -304 -1253 -287 -1850 14 -497 58 -842 161
-1262 206 -834 582 -1574 1145 -2254 148 -177 536 -561 719 -709 651 -530
1332 -877 2136 -1090 279 -74 566 -124 895 -156 243 -25 756 -25 1005 -1 1154
112 2186 540 3075 1277 160 133 556 528 690 690 734 884 1169 1926 1280 3070
28 290 21 771 -16 1115 -95 878 -407 1741 -894 2470 -468 701 -1063 1266
-1795 1708 -173 104 -552 292 -750 371 l-160 64 -3 621 -2 621 84 0 c103 0
174 14 241 47 112 56 189 146 225 262 17 53 20 92 20 242 l0 179 -685 0 -685
0 0 -1277 0 -1278 128 -34 c1319 -351 2458 -1301 3052 -2545 313 -654 469
-1361 470 -2122 0 -538 -122 -1161 -335 -1699 -67 -172 -249 -537 -347 -698
-600 -989 -1526 -1726 -2614 -2081 -1151 -374 -2417 -298 -3500 212 -562 265
-1073 638 -1477 1077 -718 780 -1139 1710 -1254 2765 -25 236 -25 805 0 1010
109 889 411 1643 937 2345 449 599 1061 1102 1735 1426 280 135 554 237 827
310 l128 34 0 1278 0 1277 -685 0 -685 0 0 -147z"/>
<path d="M10208 17695 c-103 -38 -261 -174 -400 -345 -289 -355 -400 -610
-385 -879 9 -159 44 -260 152 -426 74 -116 227 -270 314 -316 l63 -34 -7 -290
c-4 -159 -9 -292 -12 -295 -3 -3 -11 4 -19 15 -85 120 -141 195 -163 218 -22
24 -26 38 -28 90 -3 118 -64 297 -129 378 -54 67 -177 168 -263 218 -178 102
-390 181 -487 181 -38 0 -51 -5 -75 -31 -52 -56 -52 -158 2 -325 81 -253 221
-442 384 -518 102 -47 301 -62 462 -36 l81 13 29 -33 c47 -55 111 -150 165
-244 l51 -88 -1 -192 c0 -105 -5 -335 -11 -511 -6 -176 -11 -386 -11 -467 0
-82 -4 -148 -9 -148 -5 0 -28 25 -51 55 -43 56 -108 115 -213 194 -52 39 -63
55 -107 148 -28 57 -81 159 -119 226 l-68 123 -6 99 c-9 176 -79 335 -186 424
-52 43 -224 149 -256 157 -11 3 -33 1 -47 -5 -25 -9 -27 -15 -33 -97 -10 -115
12 -229 64 -333 66 -131 213 -248 356 -282 28 -6 55 -13 61 -14 19 -5 202
-331 191 -341 -2 -3 -88 32 -191 78 -177 78 -188 84 -211 124 -31 53 -172 206
-234 254 -96 75 -283 151 -441 180 -152 28 -339 14 -489 -36 -159 -53 -297
-156 -320 -240 -9 -33 -8 -43 13 -79 43 -72 246 -242 396 -329 114 -67 288
-116 411 -116 159 0 232 23 486 156 l184 96 112 -47 c62 -26 144 -63 182 -82
236 -118 447 -289 505 -408 l23 -47 -5 -380 c-3 -208 -9 -382 -13 -386 -4 -4
-19 9 -34 28 -14 19 -48 61 -76 93 -64 75 -61 71 -86 140 -29 81 -106 192
-195 282 -64 64 -90 83 -187 129 -123 59 -174 75 -317 101 -52 10 -131 26
-175 37 -99 24 -154 27 -188 9 -36 -19 -38 -40 -12 -144 50 -203 195 -434 331
-528 111 -76 235 -114 369 -113 113 1 198 20 288 65 33 16 65 29 73 29 17 0
74 -84 149 -218 l58 -104 -7 -116 c-4 -65 -11 -151 -17 -192 -21 -157 -90
-485 -118 -556 -53 -135 -123 -221 -221 -271 -29 -16 -55 -34 -58 -41 -2 -7
13 -20 35 -30 34 -15 81 -17 473 -17 342 0 445 3 483 14 62 18 59 37 -13 73
-100 50 -190 168 -238 313 -46 137 -122 614 -122 764 0 59 4 72 55 166 31 55
73 123 93 149 l37 48 185 3 c144 2 197 6 240 20 215 69 339 198 414 430 48
150 53 247 14 271 -28 18 -350 -3 -493 -31 -86 -17 -183 -61 -250 -112 -79
-61 -121 -125 -156 -236 -27 -85 -30 -109 -27 -180 3 -45 8 -89 11 -97 5 -10
-14 -43 -54 -98 -34 -45 -65 -82 -69 -82 -10 0 -20 276 -20 544 0 215 1 233
21 274 54 112 262 284 477 394 127 66 417 188 446 188 9 0 72 -27 141 -60 69
-33 127 -60 130 -60 2 0 32 -13 67 -29 194 -89 278 -112 443 -118 116 -4 141
-2 227 21 155 40 323 121 469 228 64 47 139 129 139 152 0 68 -285 260 -510
345 -135 51 -233 71 -345 71 -138 0 -208 -15 -323 -70 -165 -79 -326 -216
-405 -347 -31 -52 -34 -53 -152 -99 -66 -26 -183 -76 -259 -111 -77 -34 -141
-63 -142 -63 -14 0 90 204 124 242 8 10 44 27 80 37 123 37 308 157 412 267
112 118 164 237 195 442 14 94 15 125 5 180 -6 37 -19 75 -27 85 -24 25 -80
21 -179 -13 -175 -61 -327 -157 -426 -272 -116 -133 -155 -248 -143 -417 6
-86 30 -240 39 -249 2 -2 -36 -84 -86 -183 l-89 -179 -95 -71 c-54 -40 -122
-104 -157 -145 -34 -41 -64 -74 -68 -74 -6 0 -13 267 -26 955 l-6 360 23 45
c42 83 146 234 222 325 99 118 114 131 131 116 46 -38 219 -10 360 59 92 44
106 56 159 120 44 55 72 117 104 230 29 103 29 111 4 140 -18 21 -22 22 -87
11 -113 -20 -253 -61 -326 -97 -80 -39 -167 -110 -204 -166 -30 -45 -63 -156
-63 -212 0 -35 -8 -47 -84 -126 -79 -82 -178 -206 -206 -260 -12 -23 -13 -23
-20 -5 -4 11 -10 146 -14 300 l-7 280 40 22 c92 52 210 185 259 293 35 78 90
263 101 341 44 307 35 500 -40 808 -11 47 -29 158 -39 247 -22 194 -33 239
-67 270 -29 27 -42 28 -95 9z"/>
<path d="M10506 16600 c-10 -162 -35 -351 -56 -434 -10 -39 -17 -72 -15 -74 6
-6 44 123 59 198 22 109 37 317 28 375 -8 46 -9 41 -16 -65z"/>
<path d="M10550 16561 c0 -16 5 -33 10 -36 6 -4 10 6 10 24 0 16 -4 33 -10 36
-6 4 -10 -6 -10 -24z"/>
<path d="M10552 16460 c-4 -9 -42 -275 -42 -289 0 -10 3 -12 10 -5 15 15 41
189 37 246 -2 29 -4 51 -5 48z"/>
<path d="M9055 16258 c28 -21 84 -38 90 -29 5 9 -32 27 -80 37 -28 6 -29 5
-10 -8z"/>
<path d="M8943 16242 c4 -5 23 -13 44 -17 20 -4 77 -23 125 -42 93 -37 123
-40 65 -6 -73 44 -251 93 -234 65z"/>
<path d="M10789 15108 c-146 -97 -266 -251 -284 -363 -5 -33 2 -24 41 55 39
79 61 109 133 180 47 47 109 104 136 127 28 23 47 42 44 42 -4 1 -35 -18 -70
-41z"/>
<path d="M10475 14785 c-24 -53 -39 -153 -28 -195 9 -33 10 -30 17 42 4 43 14
101 21 130 17 63 14 71 -10 23z"/>
<path d="M11871 14766 c4 -4 36 -11 71 -16 36 -5 72 -12 82 -16 9 -3 16 -2 16
4 0 5 -8 13 -17 17 -25 9 -159 19 -152 11z"/>
<path d="M11815 14735 c-5 -2 -36 -6 -67 -10 -104 -12 -61 -20 105 -21 148 0
169 -3 242 -27 124 -42 149 -31 30 13 -101 37 -264 61 -310 45z"/>
<path d="M10481 14623 c0 -25 1 -26 9 -8 12 27 12 35 0 35 -5 0 -10 -12 -9
-27z"/>
<path d="M7937 13933 c45 -40 171 -109 245 -134 35 -12 95 -23 133 -25 l70 -4
-105 28 c-112 30 -239 82 -323 132 l-52 31 32 -28z"/>
<path d="M8595 13795 c-5 -2 -43 -9 -82 -15 -75 -12 -99 -30 -40 -30 37 0 125
22 153 38 18 11 18 11 -1 11 -11 0 -24 -2 -30 -4z"/>
<path d="M8342 13701 c35 -14 142 -11 171 5 10 6 -26 9 -94 9 -103 0 -108 -1
-77 -14z"/>
<path d="M9820 13555 c0 -2 7 -30 15 -62 8 -31 15 -93 15 -138 0 -86 7 -125
21 -125 17 0 -1 241 -22 288 -15 36 -29 54 -29 37z"/>
<path d="M9235 13477 c92 -31 189 -81 244 -125 39 -32 42 -33 27 -9 -36 54
-201 138 -296 151 -40 5 -37 3 25 -17z"/>
<path d="M9361 13476 c2 -2 20 -11 39 -20 l35 -17 -24 21 c-13 11 -30 20 -39
20 -8 0 -13 -2 -11 -4z"/>
<path d="M9777 13454 c-3 -3 -4 -11 -2 -17 2 -7 6 -24 9 -39 8 -37 26 -36 26
1 0 48 -15 73 -33 55z"/>
<path d="M9500 13395 c7 -9 15 -13 17 -11 7 7 -7 26 -19 26 -6 0 -6 -6 2 -15z"/>
<path d="M10266 11723 c11 -63 148 -273 166 -255 13 13 -143 292 -163 292 -6
0 -7 -16 -3 -37z"/>
<path d="M10494 11446 c-8 -21 3 -36 27 -36 25 0 25 26 -1 40 -16 9 -22 8 -26
-4z"/>
<path d="M8318 11423 c-16 -2 -28 -11 -28 -18 0 -14 4 -14 158 1 28 3 52 10
52 15 0 9 -127 10 -182 2z"/>
<path d="M11948 11423 c-10 -2 -18 -11 -18 -19 0 -19 76 -19 83 0 9 22 -22 30
-65 19z"/>
<path d="M12133 11423 c-13 -2 -23 -9 -23 -14 0 -10 112 -12 148 -2 59 15 -53
30 -125 16z"/>
<path d="M7125 11404 c-75 -18 -73 -16 -35 -25 41 -10 275 0 263 11 -10 9
-199 21 -228 14z"/>
<path d="M8340 11363 c-105 -5 -620 -44 -680 -52 l-55 -7 65 -8 c36 -4 148 -4
250 1 102 5 220 7 264 5 73 -3 357 21 391 34 8 4 15 12 15 20 0 14 -60 16
-250 7z"/>
<path d="M12193 11361 c-245 -4 -335 -9 -345 -18 -14 -15 -12 -16 67 -18 33 0
139 -5 236 -9 141 -7 215 -5 370 9 152 14 213 16 284 8 50 -5 92 -8 94 -7 2 2
-13 11 -35 21 -47 20 -178 23 -671 14z"/>
<path d="M7030 11330 c-161 -11 -278 -61 -384 -165 -78 -77 -155 -240 -127
-268 8 -8 11 -5 11 10 0 11 16 51 35 89 90 181 301 291 600 315 205 17 242 27
95 26 -69 0 -172 -3 -230 -7z"/>
<path d="M9150 11329 c-80 -4 -233 -17 -340 -28 -363 -38 -491 -43 -1130 -46
-706 -2 -705 -2 -846 -70 -134 -64 -214 -166 -275 -345 -122 -363 58 -878 435
-1243 199 -193 493 -367 841 -497 467 -176 633 -278 915 -565 319 -324 494
-453 761 -560 133 -54 263 -89 384 -106 244 -32 636 83 907 267 127 86 165
120 413 365 127 124 268 254 315 288 104 76 389 220 565 285 306 114 436 178
650 320 213 143 395 323 509 504 89 141 182 373 211 523 48 255 -20 525 -172
677 -138 139 -348 180 -813 160 -307 -13 -952 2 -1155 27 -196 24 -439 44
-626 51 l-174 6 60 -37 c98 -60 152 -106 315 -270 85 -85 162 -155 171 -155 9
0 24 9 34 20 29 32 123 91 177 112 104 39 261 40 356 2 24 -9 41 -18 40 -20
-2 -1 -34 1 -72 6 -70 9 -183 -3 -220 -22 -16 -9 -14 -12 22 -28 48 -22 132
-96 132 -118 0 -9 -16 0 -44 26 -75 70 -182 80 -273 27 -38 -23 -74 -68 -62
-79 24 -20 287 -190 301 -194 10 -2 34 9 56 26 103 82 293 174 422 205 151 37
238 39 427 11 41 -6 45 -5 107 54 39 36 96 75 142 98 72 36 83 38 168 39 79 0
99 -4 150 -28 32 -15 56 -30 53 -33 -3 -3 -14 -1 -24 4 -66 36 -207 31 -292
-10 -40 -19 -181 -141 -181 -157 0 -3 33 -24 72 -46 215 -119 372 -397 318
-565 -6 -19 -8 -12 -9 32 -3 151 -51 259 -168 376 -46 46 -88 80 -94 77 -7 -5
-9 -63 -3 -195 7 -203 1 -256 -42 -341 -38 -77 -56 -70 -28 11 36 107 39 168
15 307 -12 66 -21 153 -21 191 l0 70 -41 16 c-108 43 -261 57 -402 35 -143
-22 -369 -117 -491 -206 l-50 -36 36 -31 c344 -305 486 -426 498 -426 6 0 10
22 10 49 0 67 50 164 108 208 49 37 113 45 148 18 18 -13 16 -14 -26 -15 -75
0 -116 -45 -145 -159 -43 -165 44 -260 270 -296 158 -25 240 -72 306 -174 41
-63 36 -72 -13 -24 -56 54 -86 68 -210 99 -57 14 -111 27 -120 30 -15 4 -15 0
3 -46 20 -53 24 -106 10 -128 -5 -9 -10 4 -14 37 -12 104 -64 159 -242 256
-69 37 -152 90 -185 116 -33 27 -60 45 -60 40 0 -6 7 -40 16 -78 27 -117 7
-226 -57 -303 -17 -20 -19 -21 -13 -5 43 116 46 132 41 200 -3 39 -11 84 -17
100 l-12 30 -12 -40 c-17 -54 -53 -123 -121 -231 -30 -49 -62 -111 -70 -138
-15 -51 -21 -156 -8 -156 4 0 26 9 50 21 55 27 157 44 205 35 36 -7 98 -49 98
-67 0 -5 -18 1 -41 12 -95 50 -279 -14 -279 -96 0 -21 78 -103 125 -132 19
-11 18 -12 -8 -12 -73 -2 -172 89 -202 186 -41 129 -16 257 82 417 92 149 123
211 129 259 6 42 3 49 -41 111 -51 72 -59 75 -141 55 -120 -31 -139 -141 -32
-189 53 -24 30 -37 -26 -16 -24 9 -53 28 -66 41 -13 14 -27 25 -32 25 -16 0
-48 -84 -48 -127 0 -44 -14 -64 -24 -37 -12 31 -6 106 14 161 31 87 100 166
190 215 l31 18 -33 28 c-64 56 -191 142 -210 142 -51 0 -151 -77 -184 -143
-26 -48 -44 -126 -44 -184 0 -29 -4 -53 -9 -53 -14 0 -34 108 -28 157 6 57
-13 57 -72 1 -24 -24 -41 -35 -38 -26 15 43 62 102 107 134 27 19 52 44 55 54
8 24 102 110 121 110 8 0 14 3 14 8 -1 4 -78 63 -173 132 -283 206 -430 267
-615 258 -57 -3 -99 -11 -121 -22 -115 -61 -156 -209 -111 -399 l24 -95 33 46
c74 104 181 151 301 131 44 -7 61 -5 86 8 40 21 122 22 161 0 l30 -16 -61 -1
c-36 0 -68 -6 -80 -14 -18 -14 -16 -18 48 -80 36 -36 75 -85 87 -109 26 -55
37 -107 22 -107 -6 0 -11 8 -11 18 0 33 -51 120 -92 157 -52 48 -133 85 -184
85 l-41 0 45 -46 c56 -59 82 -115 82 -182 0 -83 -33 -148 -93 -179 -47 -24
-43 -7 8 40 44 40 48 47 52 97 5 64 -12 112 -54 154 -96 97 -233 64 -288 -69
l-17 -39 81 -161 c67 -134 158 -290 232 -396 l16 -23 83 28 c97 34 204 44 281
26 30 -7 89 -30 131 -52 l77 -40 34 36 c19 19 46 40 61 46 45 17 118 12 154
-10 39 -24 42 -33 5 -19 -57 22 -136 -11 -179 -73 l-26 -37 20 -28 c28 -39 52
-127 52 -187 -1 -143 -75 -305 -170 -371 -55 -38 -61 -25 -9 22 72 66 118 158
134 271 l7 52 -39 0 c-57 -1 -118 -33 -150 -79 -31 -45 -43 -51 -43 -21 0 58
79 139 155 160 28 7 53 16 57 19 13 11 -29 88 -70 129 -104 104 -303 141 -441
81 -76 -32 -77 -37 -40 -121 75 -172 109 -316 109 -467 0 -80 3 -91 30 -135
l31 -48 48 7 c39 5 57 2 92 -15 73 -37 129 -100 129 -147 0 -11 -7 -4 -18 17
-21 42 -89 80 -144 80 -49 0 -55 -16 -29 -68 46 -90 49 -203 7 -264 -34 -51
-49 -45 -21 8 48 90 24 183 -79 307 -36 42 -67 74 -69 70 -3 -5 -10 -34 -17
-66 -10 -49 -78 -193 -130 -273 -12 -19 -10 -26 9 -57 30 -49 42 -95 35 -134
-8 -40 -22 -35 -16 5 4 31 -33 121 -54 129 -7 3 -35 -13 -61 -35 -45 -37 -103
-72 -119 -72 -4 0 13 13 38 30 60 40 140 126 168 179 22 44 21 62 -2 44 -7 -5
-57 -27 -111 -47 -113 -44 -177 -90 -231 -169 -35 -51 -56 -70 -56 -51 0 29
74 146 122 195 59 58 59 58 44 88 -58 111 -180 154 -280 98 -54 -30 -59 -21
-12 21 83 73 218 46 321 -64 l51 -53 79 26 c91 31 144 75 163 139 37 126 20
343 -43 532 -43 128 -141 329 -167 343 -64 34 -178 16 -257 -42 -36 -25 -110
-113 -111 -130 0 -3 31 -9 70 -13 177 -16 290 -108 290 -236 0 -27 -4 -50 -10
-50 -5 0 -10 18 -10 41 0 58 -25 94 -89 128 -71 37 -151 52 -214 40 -92 -17
-106 -42 -87 -150 15 -83 51 -151 108 -206 38 -38 42 -45 22 -38 -66 20 -157
155 -180 270 -33 159 48 340 187 422 51 30 153 63 193 63 16 0 31 3 33 8 7 11
-136 298 -163 327 -25 27 -66 33 -103 14 -26 -13 -87 -70 -87 -80 0 -4 17 -10
38 -14 54 -9 97 -37 128 -85 37 -55 24 -60 -24 -9 -36 39 -44 43 -100 47 -55
4 -61 2 -75 -19 -8 -13 -23 -57 -33 -96 -10 -40 -22 -73 -26 -73 -12 0 -9 68
6 142 30 140 99 238 181 259 25 6 45 16 45 21 0 5 -8 25 -19 46 -43 86 -107
308 -131 458 -15 92 -36 125 -101 158 -65 32 -101 33 -159 4 -55 -28 -87 -74
-95 -136 -21 -148 -79 -358 -139 -495 l-16 -37 27 -11 c99 -38 148 -93 184
-207 23 -76 38 -213 21 -197 -6 6 -18 39 -27 75 -9 35 -21 73 -26 83 -28 51
-119 39 -181 -23 -33 -32 -38 -35 -38 -17 0 34 72 93 129 107 28 7 51 15 51
18 -1 15 -37 51 -70 71 -46 28 -91 27 -117 -1 -18 -20 -173 -318 -173 -333 0
-3 25 -5 55 -5 129 0 264 -98 336 -245 31 -63 34 -78 34 -155 0 -141 -51 -257
-143 -327 -62 -47 -69 -41 -14 15 27 26 58 68 71 95 27 57 47 162 37 200 -16
64 -165 81 -274 32 -83 -37 -112 -70 -121 -137 -9 -66 -26 -41 -18 28 6 58 47
118 104 154 47 30 156 60 217 60 20 0 36 4 36 8 0 16 -55 90 -87 116 -71 59
-187 89 -258 66 -35 -11 -41 -20 -100 -142 -105 -216 -149 -377 -149 -553 -1
-219 28 -273 175 -324 50 -18 92 -31 93 -29 24 41 85 99 129 122 99 50 187 44
247 -15 38 -39 33 -46 -13 -19 -56 33 -95 41 -143 29 -49 -13 -126 -75 -150
-121 -15 -29 -15 -29 43 -86 59 -58 135 -184 120 -199 -5 -4 -13 0 -19 10 -47
85 -147 170 -235 202 -27 10 -72 28 -102 42 -30 13 -56 21 -59 18 -3 -2 10
-30 29 -61 32 -53 98 -118 163 -159 32 -22 20 -33 -16 -14 -13 6 -44 29 -69
50 -26 22 -51 39 -56 39 -20 0 -55 -82 -55 -126 1 -48 -13 -60 -21 -17 -7 37
15 114 41 148 l22 28 -25 33 c-39 51 -113 210 -125 270 -6 29 -15 54 -20 54
-12 0 -115 -130 -138 -175 -35 -71 -38 -125 -9 -189 28 -60 21 -74 -12 -27
-47 66 -46 169 3 277 27 59 24 64 -42 64 -52 0 -103 -30 -129 -76 -21 -36 -23
-37 -23 -13 0 36 68 112 125 139 36 18 55 21 91 15 81 -12 108 36 117 210 8
145 37 270 97 408 48 111 47 113 -30 146 -101 44 -238 37 -348 -17 -84 -41
-179 -156 -158 -190 3 -5 26 -15 50 -22 51 -14 119 -68 141 -111 17 -32 20
-69 5 -69 -5 0 -10 4 -10 9 0 19 -53 72 -91 91 -45 23 -107 26 -115 6 -9 -23
26 -147 59 -209 17 -32 51 -76 75 -98 51 -45 50 -62 -2 -30 -43 27 -120 138
-145 212 -42 118 -35 248 17 340 l26 47 -28 36 c-37 49 -79 69 -143 67 -29 0
-53 1 -53 4 0 13 65 35 105 35 60 0 106 -20 138 -61 l26 -34 68 36 c110 59
163 72 262 66 76 -4 139 -21 231 -61 12 -5 38 29 106 141 101 165 206 359 223
414 18 56 -19 127 -91 173 -73 47 -187 5 -232 -86 -44 -89 -30 -157 45 -222
36 -31 39 -36 19 -31 -30 9 -86 60 -106 97 -37 71 -6 197 67 270 33 33 43 48
33 52 -37 14 -146 -30 -208 -85 -33 -29 -96 -137 -96 -166 0 -7 -5 -13 -11
-13 -15 0 -5 52 21 106 11 23 52 72 90 110 62 61 68 70 53 82 -9 6 -46 12 -82
12 -59 1 -64 2 -47 15 35 26 104 30 156 8 40 -17 55 -19 101 -10 111 20 224
-27 295 -122 25 -33 41 -47 45 -38 17 33 43 169 42 222 -1 125 -74 241 -165
266 -165 44 -411 -34 -636 -202 -61 -46 -141 -105 -177 -130 l-65 -46 49 -31
c28 -19 63 -53 81 -82 18 -28 36 -50 40 -50 17 0 74 -56 102 -99 39 -63 35
-72 -10 -23 -58 63 -68 57 -75 -40 -3 -46 -8 -91 -12 -100 -13 -31 -25 -8 -25
46 0 118 -59 229 -150 284 -40 24 -63 32 -83 28 -30 -6 -126 -71 -192 -130
-33 -30 -37 -37 -24 -45 107 -66 186 -157 209 -242 13 -47 9 -150 -5 -147 -5
2 -9 7 -7 12 6 19 -20 117 -38 138 l-18 22 -41 -37 c-23 -20 -50 -37 -60 -37
-11 0 -26 -3 -35 -6 -30 -11 -16 14 14 26 72 30 91 102 40 150 -28 26 -94 50
-139 50 -23 0 -108 -98 -117 -136 -14 -54 2 -88 149 -328 86 -139 106 -296 53
-413 -35 -76 -107 -149 -159 -158 -53 -10 -67 -1 -29 19 47 24 112 94 112 120
0 28 -53 80 -102 100 -53 23 -130 20 -179 -5 -48 -24 -60 -20 -28 10 31 29
104 51 170 51 44 0 70 -7 114 -30 31 -16 59 -30 61 -30 10 0 2 129 -10 162 -7
20 -46 91 -86 157 -39 66 -82 147 -94 181 l-23 62 -14 -33 c-28 -66 -15 -170
37 -304 7 -20 7 -20 -15 0 -29 25 -51 67 -67 130 -19 69 -17 118 5 200 11 38
18 72 15 74 -2 3 -19 -9 -37 -26 -45 -42 -105 -81 -227 -147 -154 -84 -212
-148 -227 -251 -3 -24 -10 -42 -14 -39 -15 9 -10 72 11 130 17 50 17 55 3 50
-9 -4 -57 -16 -107 -27 -116 -26 -164 -47 -220 -99 -51 -47 -55 -46 -27 8 52
99 164 166 320 189 129 19 212 59 256 126 41 63 13 225 -50 292 -27 29 -39 35
-74 35 -41 0 -55 13 -25 24 108 41 244 -92 244 -240 0 -24 4 -44 9 -44 11 0
176 138 316 265 50 44 118 104 153 134 34 29 62 56 62 59 0 11 -137 96 -215
135 -100 49 -201 84 -302 103 -121 22 -281 15 -383 -18 l-75 -24 -6 -99 c-3
-55 -14 -142 -23 -194 -20 -108 -16 -173 18 -274 17 -50 19 -67 9 -67 -17 0
-50 67 -69 143 -14 52 -15 94 -9 256 l7 193 -32 -18 c-46 -27 -142 -133 -178
-195 -38 -67 -62 -158 -63 -240 -1 -56 -2 -60 -10 -34 -14 44 -3 165 22 226
51 132 172 267 301 338 l71 39 -49 53 c-123 131 -273 175 -418 119 -54 -20
-39 0 20 27 51 24 72 28 150 28 84 0 95 -2 167 -38 48 -24 103 -62 143 -99
l65 -61 82 13 c120 20 267 16 368 -10 148 -38 344 -131 444 -210 21 -17 43
-30 49 -30 22 0 306 195 306 211 0 9 -16 29 -35 43 -103 79 -219 75 -307 -12
-26 -24 -38 -31 -38 -20 0 22 77 90 127 114 24 10 43 22 43 26 0 4 -35 14 -77
24 -65 14 -90 15 -153 6 -41 -5 -77 -9 -79 -6 -9 8 67 32 136 43 158 24 309
-24 435 -137 17 -15 33 -22 45 -18 10 3 85 73 166 155 145 147 254 239 332
280 l40 21 -90 -2 c-50 0 -155 -4 -235 -9z m2023 -150 c-18 -18 -103 -58 -107
-50 -10 15 19 42 59 55 40 14 64 11 48 -5z m-2213 -35 c0 -9 -7 -14 -17 -12
-25 5 -28 28 -4 28 12 0 21 -6 21 -16z m-180 -15 c0 -5 -7 -9 -15 -9 -15 0
-20 12 -9 23 8 8 24 -1 24 -14z m2712 10 c29 -6 56 -14 60 -18 4 -3 -46 -6
-110 -6 -129 0 -205 -15 -269 -51 -53 -30 -65 -14 -17 22 76 59 209 79 336 53z
m781 -14 c1 -5 -6 -11 -15 -13 -11 -2 -18 3 -18 13 0 17 30 18 33 0z m-296
-21 c8 -21 -13 -42 -28 -27 -13 13 -5 43 11 43 6 0 13 -7 17 -16z m177 -20
c12 -12 13 -20 6 -35 -12 -21 -40 -25 -58 -7 -16 16 -15 23 4 42 19 20 29 20
48 0z m-3239 -39 c0 -22 -31 -33 -47 -17 -17 17 -1 44 24 40 15 -2 23 -10 23
-23z m-732 -9 c8 -20 -20 -43 -35 -28 -14 14 -3 42 16 42 7 0 16 -6 19 -14z
m-405 -23 c2 -9 -7 -13 -27 -13 -30 0 -46 11 -34 24 11 11 56 2 61 -11z m-151
-25 c41 -19 66 -22 185 -22 93 -1 141 -5 149 -13 10 -10 -1 -12 -47 -10 -32 1
-96 -3 -141 -7 -79 -9 -83 -8 -148 23 -36 18 -63 36 -60 41 8 13 6 13 62 -12z
m573 -43 c0 -8 -6 -15 -14 -15 -17 0 -28 14 -19 24 12 12 33 6 33 -9z m1228
-154 c-2 -9 -11 -17 -21 -19 -21 -4 -35 27 -17 38 19 12 42 0 38 -19z m134 -6
c0 -5 -5 -11 -11 -13 -6 -2 -11 4 -11 13 0 9 5 15 11 13 6 -2 11 -8 11 -13z
m3652 -41 c8 -21 -1 -34 -24 -34 -22 0 -34 15 -26 35 7 20 42 19 50 -1z
m-6378 -19 c7 -18 -13 -45 -33 -45 -17 0 -27 24 -19 45 7 20 45 19 52 0z m102
-23 c2 -7 -3 -12 -12 -12 -9 0 -16 7 -16 16 0 17 22 14 28 -4z m6110 6 c-7
-19 -38 -22 -38 -4 0 10 9 16 21 16 12 0 19 -5 17 -12z m-774 -31 c9 -15 7
-21 -9 -33 -22 -16 -34 -14 -49 8 -7 12 -6 21 4 33 16 19 39 16 54 -8z m-294
-15 c0 -5 -51 -28 -112 -52 -62 -23 -128 -51 -145 -61 -63 -35 -26 13 42 56
31 20 166 63 198 64 9 1 17 -3 17 -7z m1148 -51 c23 -14 10 -46 -21 -49 -23
-3 -27 0 -27 22 0 21 10 32 30 35 3 0 11 -3 18 -8z m-3170 -40 c-2 -9 -11 -17
-21 -19 -21 -4 -35 27 -17 38 19 12 42 0 38 -19z m2160 -2 c4 -19 -19 -31 -38
-19 -18 11 -4 42 17 38 10 -2 19 -10 21 -19z m-5238 -14 c0 -8 -7 -15 -15 -15
-8 0 -15 7 -15 15 0 8 7 15 15 15 8 0 15 -7 15 -15z m5463 1 c7 -16 -1 -26
-20 -26 -7 0 -13 9 -13 20 0 23 25 27 33 6z m934 -3 c4 -11 -26 -27 -35 -19
-2 3 -2 12 2 21 6 18 27 16 33 -2z m-5349 -20 c-2 -10 -10 -18 -18 -18 -8 0
-16 8 -18 18 -2 12 3 17 18 17 15 0 20 -5 18 -17z m110 0 c-4 -22 -22 -20 -26
1 -2 10 3 16 13 16 10 0 15 -7 13 -17z m3842 12 c0 -9 -62 -36 -68 -30 -9 9
28 35 50 35 10 0 18 -2 18 -5z m-1752 -57 c28 -28 3 -66 -33 -52 -18 7 -20 50
-2 57 19 8 22 8 35 -5z m-138 -73 c0 -8 -7 -15 -15 -15 -8 0 -15 7 -15 15 0 8
7 15 15 15 8 0 15 -7 15 -15z m3380 -70 c0 -84 -59 -234 -145 -366 -53 -82
-163 -202 -177 -193 -5 3 17 34 49 67 98 103 150 201 222 420 32 94 51 122 51
72z m-6445 -55 c0 -8 -10 -16 -22 -18 -22 -3 -32 16 -16 32 12 11 38 2 38 -14z
m6270 -11 c0 -8 -10 -15 -22 -17 -25 -4 -33 22 -10 31 18 8 32 2 32 -14z
m-4065 -104 c0 -8 -7 -15 -15 -15 -8 0 -15 7 -15 15 0 8 7 15 15 15 8 0 15 -7
15 -15z m-2346 -66 c-8 -14 -34 -11 -34 4 0 8 3 17 7 20 9 9 34 -13 27 -24z
m2214 -65 c4 -27 -26 -40 -46 -20 -21 20 -8 48 20 44 14 -2 24 -11 26 -24z
m182 -28 c0 -20 -19 -31 -32 -18 -6 6 -7 15 -4 21 10 16 36 13 36 -3z m3745
-22 c0 -10 -8 -20 -17 -22 -18 -3 -26 27 -11 42 12 11 28 0 28 -20z m-5557
-37 c2 -12 -3 -17 -17 -17 -15 0 -21 6 -21 21 0 25 33 22 38 -4z m5702 -52 c0
-4 -7 -19 -15 -34 -14 -29 -152 -161 -167 -161 -22 0 0 31 79 111 78 80 103
100 103 84z m-6065 -80 c0 -30 -39 -27 -43 3 -3 20 0 23 20 20 15 -2 23 -10
23 -23z m5970 -137 c-5 -13 -55 -48 -69 -48 -17 0 -2 22 31 44 39 27 47 28 38
4z m-2965 -63 c0 -8 -7 -15 -15 -15 -16 0 -20 12 -8 23 11 12 23 8 23 -8z
m-910 -25 c0 -11 -6 -20 -14 -20 -18 0 -29 16 -21 30 11 18 35 11 35 -10z
m-144 -41 c10 -17 -13 -36 -27 -22 -12 12 -4 33 11 33 5 0 12 -5 16 -11z
m3264 -19 c0 -11 -4 -20 -9 -20 -14 0 -23 18 -16 30 10 17 25 11 25 -10z m309
-13 c15 -19 -10 -53 -33 -44 -16 6 -22 38 -9 50 10 11 30 8 42 -6z m-2470 -16
c13 -24 -9 -57 -33 -48 -23 9 -31 34 -16 52 17 20 37 19 49 -4z m-2304 -36 c0
-30 -39 -27 -43 3 -3 20 0 23 20 20 15 -2 23 -10 23 -23z m1274 -19 c16 -20 3
-46 -24 -46 -13 0 -26 7 -29 16 -7 19 10 44 29 44 7 0 18 -6 24 -14z m3321
-16 c16 -31 -4 -62 -38 -58 -28 3 -40 32 -28 64 8 21 54 17 66 -6z m210 -40
c0 -13 -7 -20 -20 -20 -13 0 -20 7 -20 20 0 13 7 20 20 20 13 0 20 -7 20 -20z
m-4902 -27 c-2 -10 -10 -18 -18 -18 -8 0 -16 8 -18 18 -2 12 3 17 18 17 15 0
20 -5 18 -17z m732 -68 c0 -23 -86 -105 -110 -105 -25 0 -26 17 -2 24 10 3 38
26 62 51 24 25 45 45 47 45 2 0 3 -7 3 -15z m10 -73 c0 -19 -33 -52 -52 -52
-21 0 -20 2 7 30 28 29 45 38 45 22z m3107 -38 c8 -22 -18 -37 -36 -20 -7 8
-10 19 -7 25 10 16 36 13 43 -5z m-909 -52 c4 -28 -24 -40 -45 -19 -21 21 -9
49 19 45 15 -2 24 -11 26 -26z m-700 -45 c2 -12 -3 -17 -17 -17 -15 0 -21 6
-21 21 0 25 33 22 38 -4z m1782 9 c0 -8 -5 -18 -11 -22 -14 -8 -33 11 -25 25
10 16 36 13 36 -3z m-2332 -53 c5 -17 -26 -29 -40 -15 -6 6 -7 15 -3 22 9 14
37 9 43 -7z m2140 8 c8 -4 12 -19 10 -32 -2 -18 -9 -24 -28 -24 -28 0 -39 27
-20 50 14 17 20 18 38 6z m-2058 -37 c0 -17 -26 -19 -36 -3 -7 12 15 31 28 23
4 -3 8 -12 8 -20z m560 -4 c0 -5 -7 -10 -15 -10 -8 0 -15 5 -15 10 0 6 7 10
15 10 8 0 15 -4 15 -10z m194 -6 c11 -27 7 -43 -14 -54 -40 -22 -80 26 -48 58
17 17 55 15 62 -4z m206 -15 c0 -5 -7 -9 -15 -9 -15 0 -20 12 -9 23 8 8 24 -1
24 -14z m-1043 -35 c7 -19 -20 -49 -36 -40 -12 8 -15 39 -4 49 12 12 33 7 40
-9z m617 -440 c19 -18 19 -20 6 -45 -14 -24 -56 -25 -69 -1 -7 14 -6 25 5 40
18 26 37 28 58 6z m154 -97 c2 -12 -3 -17 -17 -17 -15 0 -21 6 -21 21 0 25 33
22 38 -4z m-308 -96 c0 -11 -5 -23 -11 -27 -15 -9 -33 12 -26 30 9 23 37 20
37 -3z m1095 -21 c-36 -38 -236 -177 -289 -201 -58 -26 -92 -24 -41 3 22 11
65 40 95 63 173 132 305 208 235 135z m-171 -57 c-31 -24 -44 -29 -44 -14 0
14 53 50 64 43 5 -3 -4 -16 -20 -29z m-959 -33 c0 -16 -6 -26 -18 -28 -19 -4
-32 20 -23 44 9 25 41 13 41 -16z m507 -25 c8 -19 8 -28 -2 -40 -23 -28 -70
-12 -70 25 0 42 54 54 72 15z m-142 -151 c11 -12 10 -18 -3 -32 -16 -15 -18
-15 -34 0 -13 14 -14 20 -3 32 7 9 16 16 20 16 4 0 13 -7 20 -16z"/>
<path d="M12170 9029 c-55 -30 -100 -66 -100 -80 0 -14 76 18 135 55 91 59 63
79 -35 25z"/>
<path d="M12102 8908 c-56 -29 -252 -176 -259 -195 -11 -28 7 -25 49 10 24 19
84 55 133 80 92 47 149 90 142 110 -6 19 -21 17 -65 -5z"/>
<path d="M11831 8875 c-52 -25 -133 -71 -180 -102 -131 -87 -350 -307 -328
-330 4 -3 37 23 74 57 96 89 245 198 354 260 134 76 209 128 209 145 0 24 -30
17 -129 -30z"/>
<path d="M8310 8791 c0 -6 44 -45 98 -88 53 -42 196 -174 317 -293 292 -285
403 -373 558 -445 74 -34 107 -43 107 -27 0 4 -42 32 -92 62 -160 95 -285 197
-478 390 -189 191 -238 232 -395 337 -115 76 -115 76 -115 64z"/>
<path d="M9496 7881 c-10 -15 4 -38 30 -50 40 -18 166 -33 178 -21 15 15 0 23
-79 47 -100 30 -123 34 -129 24z"/>
<path d="M9805 7801 c-8 -14 39 -33 60 -25 21 9 19 24 -4 24 -11 0 -26 3 -34
6 -8 3 -18 1 -22 -5z"/>
<path d="M8815 5771 c-72 -18 -131 -68 -164 -141 -14 -31 -16 -164 -19 -1275
-2 -834 1 -1262 8 -1308 11 -72 37 -121 83 -157 91 -71 218 -67 303 12 85 79
79 -34 79 1418 l0 1285 -22 41 c-53 100 -162 150 -268 125z"/>
<path d="M11268 5690 c-70 -9 -116 -35 -143 -80 -17 -30 -20 -52 -20 -150 0
-102 3 -119 23 -151 30 -49 84 -70 193 -76 140 -9 219 19 256 90 25 49 24 229
-2 282 -35 71 -156 105 -307 85z"/>
<path d="M5019 5625 c-502 -69 -906 -375 -1094 -830 -81 -195 -111 -387 -102
-645 9 -248 51 -428 144 -615 185 -370 522 -618 961 -706 131 -26 359 -35 491
-20 181 21 405 92 515 161 109 69 123 229 30 338 -80 94 -168 106 -317 43
-140 -60 -233 -76 -422 -75 -138 1 -173 5 -257 27 -289 77 -492 261 -582 531
-49 144 -71 410 -47 564 58 371 274 630 606 726 237 69 488 54 722 -43 90 -37
133 -44 186 -30 169 42 229 300 94 403 -18 14 -72 44 -119 66 -219 102 -531
143 -809 105z"/>
<path d="M9950 5405 c-60 -27 -101 -66 -126 -119 -22 -47 -24 -64 -24 -208 l0
-158 -120 0 c-132 0 -174 -11 -223 -58 -38 -35 -54 -67 -62 -123 -10 -65 9
-123 57 -175 53 -57 108 -74 245 -74 l103 0 0 -602 c1 -654 5 -711 54 -813 47
-94 127 -156 261 -198 130 -41 344 -47 435 -11 72 28 150 84 178 127 53 80 29
212 -48 265 -38 26 -76 28 -144 7 -64 -20 -149 -19 -192 1 -21 10 -40 31 -54
58 -19 41 -20 59 -20 604 l0 562 153 0 c191 0 238 12 295 74 45 49 57 88 50
171 -5 63 -35 113 -92 153 -39 27 -41 27 -222 30 l-182 3 -4 168 c-3 167 -3
168 -33 217 -43 68 -109 107 -189 111 -40 2 -73 -2 -96 -12z"/>
<path d="M14934 4985 c-141 -22 -303 -84 -421 -162 -32 -21 -95 -73 -140 -116
-166 -159 -272 -361 -314 -597 -19 -107 -17 -336 4 -441 91 -459 427 -786 877
-854 347 -53 686 46 928 270 142 131 245 312 303 530 30 115 38 366 15 490
-34 184 -102 343 -205 482 -231 309 -634 463 -1047 398z m340 -435 c103 -26
166 -62 249 -139 79 -75 135 -163 173 -276 26 -74 28 -92 28 -235 0 -143 -2
-161 -28 -235 -69 -201 -193 -331 -384 -403 -57 -22 -84 -25 -187 -26 -164 -1
-250 28 -371 125 -136 111 -213 260 -234 455 -25 233 58 470 211 608 58 52
174 113 251 132 81 19 204 17 292 -6z"/>
<path d="M6475 4942 c-51 -24 -93 -66 -116 -117 -17 -37 -19 -79 -19 -637 0
-371 4 -626 11 -674 26 -191 113 -367 239 -488 157 -149 328 -213 606 -223
506 -20 829 210 931 662 24 107 32 1264 9 1333 -35 103 -114 161 -219 162
-101 0 -170 -43 -213 -135 l-24 -50 0 -565 c-1 -616 -5 -673 -56 -778 -65
-133 -194 -201 -381 -202 -173 0 -302 61 -368 175 -61 105 -59 84 -65 760 l-5
620 -31 54 c-16 30 -49 67 -72 84 -54 40 -164 49 -227 19z"/>
<path d="M11264 4949 c-40 -11 -104 -73 -129 -124 -19 -39 -20 -69 -23 -880
-2 -526 1 -864 7 -904 13 -83 50 -136 121 -173 88 -47 190 -35 262 30 83 75
78 5 78 1002 0 841 -1 887 -19 925 -23 49 -74 99 -123 119 -41 17 -124 20
-174 5z"/>
<path d="M11995 4941 c-52 -23 -111 -90 -124 -139 -13 -48 -2 -116 32 -199 14
-32 187 -418 386 -858 379 -839 382 -844 466 -887 81 -42 205 -18 272 53 24
25 138 267 416 879 211 465 390 863 397 884 26 81 11 158 -43 214 -42 44 -73
59 -134 68 -96 12 -176 -32 -222 -124 -16 -31 -147 -329 -291 -662 -144 -333
-264 -607 -266 -609 -2 -2 -6 -2 -9 1 -3 3 -126 281 -274 619 -147 338 -277
633 -289 656 -54 104 -207 155 -317 104z"/>
<path d="M6335 1672 c-104 -36 -162 -105 -172 -206 -8 -75 15 -132 75 -188 46
-43 89 -64 258 -128 103 -39 134 -66 134 -118 0 -142 -276 -129 -299 14 l-6
39 -85 0 -85 0 2 -54 c5 -104 64 -180 173 -223 79 -31 232 -30 312 1 166 64
222 262 108 379 -40 43 -99 72 -248 127 -149 54 -190 97 -161 167 16 39 57 58
124 58 96 0 165 -51 165 -122 l0 -28 85 0 85 0 0 49 c0 105 -82 200 -203 236
-69 20 -199 19 -262 -3z"/>
<path d="M7585 1672 c-72 -23 -158 -111 -179 -182 -22 -73 -23 -424 -2 -494
21 -68 57 -118 112 -155 65 -43 114 -56 214 -55 71 0 95 5 148 29 103 46 172
146 172 247 l0 29 -87 -3 -87 -3 -8 -40 c-24 -112 -168 -151 -256 -70 l-37 33
-3 216 c-3 182 -1 220 13 246 24 46 70 70 135 70 86 0 150 -53 150 -124 0 -14
5 -28 10 -31 6 -4 47 -3 91 1 l81 7 -5 50 c-13 104 -96 201 -199 232 -67 20
-199 18 -263 -3z"/>
<path d="M12170 1674 c-67 -21 -131 -73 -165 -135 l-30 -54 0 -245 0 -245 27
-50 c34 -64 70 -98 138 -129 155 -70 355 -26 437 97 31 47 60 147 48 167 -3 5
-44 10 -91 10 l-84 0 0 -27 c0 -34 -31 -86 -63 -107 -42 -28 -110 -31 -159 -7
-78 37 -83 55 -83 291 0 228 3 241 68 280 44 27 129 27 172 0 36 -22 65 -73
65 -115 l0 -28 83 7 c45 4 86 11 90 16 15 14 -13 116 -44 163 -56 85 -151 127
-282 126 -45 0 -102 -7 -127 -15z"/>
<path d="M8655 1668 c-3 -7 -4 -206 -3 -443 l3 -430 85 0 85 0 3 443 2 442
-85 0 c-59 0 -87 -4 -90 -12z"/>
<path d="M9462 1238 l3 -443 302 -3 303 -2 5 23 c4 13 5 46 3 73 l-3 49 -220
5 -220 5 0 110 0 110 148 3 148 3 -3 72 -3 72 -147 3 -148 3 0 104 0 105 214
0 c172 0 216 3 225 14 7 9 11 38 9 73 l-3 58 -308 3 -307 2 2 -442z"/>
<path d="M10675 1668 c-3 -7 -4 -206 -3 -443 l3 -430 85 0 85 0 5 279 5 279
168 -281 167 -282 80 0 80 0 0 445 0 445 -85 0 -85 0 -2 -277 -3 -276 -165
274 -165 274 -83 3 c-60 2 -84 -1 -87 -10z"/>
<path d="M13232 1238 l3 -443 305 0 305 0 0 70 0 70 -217 3 -218 2 0 115 0
115 145 0 145 0 0 75 0 75 -145 0 -145 0 0 105 0 105 204 0 c112 0 211 3 220
6 12 5 16 21 16 75 l0 69 -310 0 -310 0 2 -442z"/>
</g>
</svg>
